<svg xmlns="http://www.w3.org/2000/svg" width="40" height="42" fill="none" viewBox="0 0 40 42">
    <g opacity=".7">
        <rect width="40" height="42" fill="#8A9B0F" rx="3"/>
        <path fill="#fff" d="M21.012 31h-3.203a.971.971 0 0 1-.97-.97v-7.224H14.97a.971.971 0 0 1-.97-.97V18.74c0-.535.435-.97.97-.97h1.869v-1.55c0-1.537.482-2.845 1.395-3.782.917-.94 2.199-1.438 3.706-1.438l2.443.004c.534 0 .969.436.969.97v2.874c0 .535-.435.97-.97.97l-1.645.001c-.501 0-.63.1-.656.131-.045.052-.099.196-.099.595v1.225h2.276a.974.974 0 0 1 .98.97l-.002 3.096c0 .534-.435.97-.97.97h-2.284v7.224c0 .535-.435.97-.97.97zm-3-1.172h2.797V22.28c0-.357.291-.648.648-.648h2.607v-2.69h-2.607a.648.648 0 0 1-.648-.648v-1.75c0-.458.047-.979.393-1.37.417-.474 1.076-.529 1.535-.529h1.442v-2.47l-2.24-.004c-2.422 0-3.928 1.551-3.928 4.048v2.075c0 .357-.29.647-.647.647h-2.192v2.691h2.192c.357 0 .647.29.647.648v7.547zm6.369-17.651z"/>
    </g>
</svg>
