<svg xmlns="http://www.w3.org/2000/svg" width="40" height="42" fill="none" viewBox="0 0 40 42">
    <g opacity=".7">
        <rect width="40" height="42" fill="#8A9B0F" rx="3"/>
        <path fill="#fff" d="M24.586 11h-9.172A5.42 5.42 0 0 0 10 16.414v9.172A5.42 5.42 0 0 0 15.414 31h9.172A5.42 5.42 0 0 0 30 25.586v-9.172A5.42 5.42 0 0 0 24.586 11zm4.242 14.586a4.246 4.246 0 0 1-4.242 4.242h-9.172a4.246 4.246 0 0 1-4.242-4.242v-9.172a4.246 4.246 0 0 1 4.242-4.242h9.172a4.246 4.246 0 0 1 4.242 4.242v9.172z"/>
        <path fill="#fff" d="M20 15.531A5.475 5.475 0 0 0 14.53 21 5.475 5.475 0 0 0 20 26.469 5.475 5.475 0 0 0 25.468 21 5.475 5.475 0 0 0 20 15.531zm0 9.765A4.301 4.301 0 0 1 15.704 21 4.301 4.301 0 0 1 20 16.704 4.3 4.3 0 0 1 24.296 21 4.3 4.3 0 0 1 20 25.296zM25.6 13.59c-.892 0-1.617.724-1.617 1.615s.725 1.616 1.616 1.616c.891 0 1.616-.725 1.616-1.616 0-.89-.725-1.616-1.616-1.616zm0 2.059a.444.444 0 1 1 0-.888.444.444 0 0 1 0 .888z"/>
    </g>
</svg>
